# xmcd
#
# Track frame offsets: 
#        150
#        20230
#        44624
#        68366
#        87741
#        104360
#        126598
#        143091
#        163167
#        182106
#        202291
#        223752
#        249105
#        272162
#        292684
#
# Disc length: 4119 seconds
#
# Revision: 0
# Processed by: cddbd v1.5.2PL0 Copyright (c) Steve Scherf et al.
# Submitted via: ExactAudioCopy v0.99pb3
#
DISCID=ed10150f
DTITLE=Various Artist - African Love Songs
DYEAR=2010
DGENRE=Ethnic
TTITLE0=AKON - Mama Africa
TTITLE1=Erykah Badu - In love with you
TTITLE2=Amadou and Miriam - Je pense a toi
TTITLE3=Khaled - Aicha
TTITLE4=Faudel - Woulli
TTITLE5=Ismael Lo - Nabou
TTITLE6=Lokua Kanza - Sallé
TTITLE7=Richard Bona - Dipama
TTITLE8=Rokia Traoré - Aimer
TTITLE9=India Arie - Ready for love
TTITLE10=Angelique Kidjo feat. Cassandra Wilson - Never know
TTITLE11=Malebo - Love is in the air
TTITLE12=Wanda Baloy - Lakutshoni Langa
TTITLE13=Theo - Never let you down
TTITLE14=Mozuluart - Igqiha
EXTD=
EXTT0=
EXTT1=
EXTT2=
EXTT3=
EXTT4=
EXTT5=
EXTT6=
EXTT7=
EXTT8=
EXTT9=
EXTT10=
EXTT11=
EXTT12=
EXTT13=
EXTT14=
PLAYORDER=
